# xmcd
#
# Track frame offsets: 
#        150
#        17171
#        52441
#        69128
#        87047
#        101262
#        133006
#        164198
#        179399
#        196220
#        225550
#        241020
#        276801
#        292186
#        307899
#        320719
#        337320
#
# Disc length: 4666 seconds
#
# Revision: 0
# Processed by: cddbd v1.5.2PL0 Copyright (c) Steve Scherf et al.
# Submitted via: ExactAudioCopy v1.0b3
#
DISCID=fa123811
DTITLE=Various Artist - Club Base Vol. 12 - CD 2
DYEAR=1900
DGENRE=
TTITLE0=Benny Benassi - Satisfaction
TTITLE1=Savon - Way To Heaven (Andy Jay Powell's Flaming Star Mix)
TTITLE2=State Of Grace - Wonder Why (Radio Edit)
TTITLE3=DJ Steve L - All By Myself
TTITLE4=MB Style - Our Time (Radio Mix)
TTITLE5=Chiffon Feat. Natasja - Heaven (André Visior Mix)
TTITLE6=Rellmann and Moiree - Far Away (Gavin and Nox Remix)
TTITLE7=2 Together - Loveline 2002 (DJ Piccolo Radio Cut)
TTITLE8=DJ Jojo Vs. M-Tracker - Funki Melodi
TTITLE9=The Shrink - Bit Staboi (I Love You) (Extended Mix)
TTITLE10=Francis Drake Jr. - Supernova
TTITLE11=GTR Vs. The Shrink - Nervous Breakdown (GTR Trance Mix)
TTITLE12=Indurro - Rockin'
TTITLE13=DJ MX5 - Keep You In Mind
TTITLE14=X-Trim - All My Dreams (Radio Mix)
TTITLE15=Ceres - Dancing With An Angel (M-Tracker Remix)
TTITLE16=M-Tracker - Shining Star
EXTD=
EXTT0=
EXTT1=
EXTT2=
EXTT3=
EXTT4=
EXTT5=
EXTT6=
EXTT7=
EXTT8=
EXTT9=
EXTT10=
EXTT11=
EXTT12=
EXTT13=
EXTT14=
EXTT15=
EXTT16=
PLAYORDER=
